<svg width="707" height="515" viewBox="0 0 707 515" fill="none" xmlns="http://www.w3.org/2000/svg">
<path d="M0 174.458L192 0.51062L193 514L0 491.681V174.458Z" fill="url(#paint0_linear_48_1754)"/>
<path d="M482.195 167.097L306.995 19.7201V512.175H482.195V167.097Z" fill="url(#paint1_linear_48_1754)"/>
<path d="M707 235.914L579 85V510H707V235.914Z" fill="url(#paint2_linear_48_1754)"/>
<path d="M255 80.966L192 0.5L193 514L255 514.5V80.966Z" fill="url(#paint3_linear_48_1754)" fill-opacity="0.25"/>
<path d="M533.493 152.56L579 85V510H533.493V152.56Z" fill="url(#paint4_linear_48_1754)" fill-opacity="0.25"/>
<defs>
<linearGradient id="paint0_linear_48_1754" x1="96.5" y1="0.223017" x2="96.5" y2="514.521" gradientUnits="userSpaceOnUse">
<stop stop-opacity="0.15"/>
<stop offset="1" stop-opacity="0"/>
</linearGradient>
<linearGradient id="paint1_linear_48_1754" x1="394.595" y1="19.7201" x2="395" y2="512.372" gradientUnits="userSpaceOnUse">
<stop stop-opacity="0.15"/>
<stop offset="1" stop-opacity="0"/>
</linearGradient>
<linearGradient id="paint2_linear_48_1754" x1="643" y1="85.3715" x2="643" y2="510" gradientUnits="userSpaceOnUse">
<stop stop-opacity="0.15"/>
<stop offset="1" stop-opacity="0"/>
</linearGradient>
<linearGradient id="paint3_linear_48_1754" x1="223.531" y1="0.244436" x2="223.531" y2="514.5" gradientUnits="userSpaceOnUse">
<stop/>
<stop offset="1" stop-opacity="0"/>
</linearGradient>
<linearGradient id="paint4_linear_48_1754" x1="556.38" y1="85.2229" x2="556.38" y2="510.597" gradientUnits="userSpaceOnUse">
<stop/>
<stop offset="1" stop-opacity="0"/>
</linearGradient>
</defs>
</svg>
